<svg width="32" height="32" viewBox="0 0 32 32" fill="none" xmlns="http://www.w3.org/2000/svg">
  <!-- Background -->
  <rect width="32" height="32" rx="4" fill="#111111"/>
  
  <!-- CPU Icon simplified -->
  <rect x="8" y="8" width="16" height="16" rx="2" stroke="#E0E0E0" stroke-width="2" fill="none"/>
  
  <!-- CPU Pins -->
  <line x1="12" y1="4" x2="12" y2="8" stroke="#FF6B6B" stroke-width="2"/>
  <line x1="16" y1="4" x2="16" y2="8" stroke="#FF6B6B" stroke-width="2"/>
  <line x1="20" y1="4" x2="20" y2="8" stroke="#FF6B6B" stroke-width="2"/>
  
  <line x1="12" y1="24" x2="12" y2="28" stroke="#FF6B6B" stroke-width="2"/>
  <line x1="16" y1="24" x2="16" y2="28" stroke="#FF6B6B" stroke-width="2"/>
  <line x1="20" y1="24" x2="20" y2="28" stroke="#FF6B6B" stroke-width="2"/>
  
  <line x1="4" y1="12" x2="8" y2="12" stroke="#FF6B6B" stroke-width="2"/>
  <line x1="4" y1="16" x2="8" y2="16" stroke="#FF6B6B" stroke-width="2"/>
  <line x1="4" y1="20" x2="8" y2="20" stroke="#FF6B6B" stroke-width="2"/>
  
  <line x1="24" y1="12" x2="28" y2="12" stroke="#FF6B6B" stroke-width="2"/>
  <line x1="24" y1="16" x2="28" y2="16" stroke="#FF6B6B" stroke-width="2"/>
  <line x1="24" y1="20" x2="28" y2="20" stroke="#FF6B6B" stroke-width="2"/>
  
  <!-- CPU Core -->
  <rect x="12" y="12" width="8" height="8" fill="#4ECDC4"/>
</svg> 